<svg xmlns="http://www.w3.org/2000/svg" width="640" height="160" viewBox="0 0 640 160">
  <rect width="640" height="160" fill="#c98b43"/>
  <rect width="640" height="32" fill="#67b55b"/>
  <path d="M0 32 C35 52 68 52 105 32 C145 10 177 12 214 32 C252 54 292 54 332 32 C372 10 414 11 454 32 C492 52 535 53 576 32 C604 18 626 17 640 23 L640 0 L0 0 Z" fill="#8cd867"/>
  <g stroke="#a97036" stroke-width="5" opacity="0.65">
    <path d="M20 68 L95 120"/>
    <path d="M145 56 L228 112"/>
    <path d="M278 70 L370 130"/>
    <path d="M430 58 L520 118"/>
    <path d="M560 70 L640 124"/>
  </g>
</svg>
